<?xml version="1.0" encoding="utf-8"?>
<!-- Generator: Adobe Illustrator 16.0.0, SVG Export Plug-In . SVG Version: 6.00 Build 0)  -->
<!DOCTYPE svg PUBLIC "-//W3C//DTD SVG 1.1//EN" "http://www.w3.org/Graphics/SVG/1.1/DTD/svg11.dtd">
<svg version="1.1" id="Layer_1" xmlns="http://www.w3.org/2000/svg" xmlns:xlink="http://www.w3.org/1999/xlink" x="0px" y="0px"
	 width="133.416px" height="30.583px" viewBox="0 0 133.416 30.583" enable-background="new 0 0 133.416 30.583"
	 xml:space="preserve">
<g>
	<path fill="#515151" d="M5.897,27.59h4.705V4.966H6.96c-3.109,0-3.518,1.188-4.909,7.323H0.497V3.044h23.646v9.245h-1.555
		c-1.391-6.136-1.8-7.323-4.95-7.323h-3.6V27.59h4.704v2.129H5.897V27.59z"/>
	<path fill="#515151" d="M28.394,20.676c0.081,4.787,2.413,7.242,5.891,7.242c2.25,0,4.132-0.859,5.236-3.6h1.719
		c-1.105,3.805-3.846,5.768-7.651,5.768c-5.359,0-8.632-3.887-8.632-9.369c0-5.604,3.846-9.737,8.754-9.737
		c5.36,0,7.733,4.829,7.61,9.696H28.394z M28.435,18.918h9.614c-0.286-3.846-1.719-6.178-4.542-6.178
		C30.807,12.74,28.843,14.826,28.435,18.918z"/>
	<path fill="#515151" d="M44.796,27.59h3.068V13.435h-3.068v-2.127h6.178v4.747c2.168-3.765,4.582-5.034,6.955-5.034
		c3.109,0,4.992,2.046,4.992,5.809v10.76h3.068v2.129h-9.042V27.59h2.823v-9.326c0-1.719-0.287-3.027-1.064-3.805
		c-0.573-0.614-1.391-0.859-2.332-0.859c-2.7,0-5.318,2.987-5.318,5.973v8.018h2.782v2.129h-9.042V27.59z"/>
	<path fill="#515151" d="M70.771,28.246c-1.8-1.76-2.661-4.42-2.661-7.488c0-3.109,1.064-6.055,2.825-7.813
		c1.227-1.229,2.781-1.965,4.746-1.965c2.535,0,4.582,1.351,5.727,3.56V3.821h-3.109V1.612h6.26V27.59h2.945v2.129h-6.014v-4.01
		c-1.432,2.904-3.682,4.336-6.178,4.336C73.431,30.045,71.876,29.35,70.771,28.246z M81.53,20.227c0-4.254-2.086-7.119-5.072-7.119
		c-2.988,0-4.869,2.783-4.869,7.445c0,4.707,2.086,7.365,4.746,7.365C79.157,27.918,81.53,24.891,81.53,20.227z"/>
	<path fill="#515151" d="M90.87,27.59h3.068V13.435H90.87v-2.127h6.178v4.336c1.188-3.11,3.438-4.583,5.564-4.583
		c1.881,0,2.986,1.269,2.986,2.823c0,1.31-0.941,2.373-2.209,2.373c-1.229,0-2.209-0.818-2.209-2.127
		c0-0.245,0.041-0.531,0.164-0.777c-2.047-0.205-3.684,2.374-4.215,4.295v9.941h3.6v2.129H90.87V27.59z"/>
	<g>
		<polyline fill="#39E5D4" points="111.854,3.617 116.958,0.671 122.063,3.617 122.063,9.511 		"/>
		<polyline fill="#39F2D4" points="132.271,3.617 127.167,0.671 122.063,3.617 122.063,9.511 		"/>
		<polygon fill="#39E5D4" points="122.069,11.074 122.069,11.075 111.397,4.915 111.397,10.109 114.745,8.175 116.202,9.013 
			112.386,11.216 116.731,13.659 116.735,13.659 122.069,16.738 122.069,16.738 		"/>
		<polygon fill="#39F2D4" points="122.069,11.074 122.071,11.075 132.743,4.915 132.743,10.109 129.394,8.175 127.938,9.013 
			131.755,11.216 127.407,13.659 127.405,13.659 122.071,16.738 122.069,16.738 		"/>
	</g>
</g>
</svg>
